<svg viewBox="61 41 54 54" xmlns="http://www.w3.org/2000/svg" width="54" height="54" fill="none">
  <path d="M115 68C115 82.9117 102.912 95 88 95C73.0883 95 61 82.9117 61 68C61 53.0883 73.0883 41 88 41C102.912 41 115 53.0883 115 68Z" fill="rgb(255,255,255)" fill-opacity="0.8" fill-rule="evenodd" />
  <path d="M88 95C73.0883 95 61 82.9117 61 68C61 53.0883 73.0883 41 88 41C102.912 41 115 53.0883 115 68C115 82.9117 102.912 95 88 95Z" fill-rule="evenodd" stroke="rgb(151,154,178)" stroke-opacity="0.196078435" stroke-width="2" />
  <path d="M97.31 71.4088C96.8345 69.9311 96.2877 68.6892 95.4466 66.6566C95.5774 61.318 93.283 57 87.9987 57C82.655 57 80.4112 61.4043 80.5538 66.6566C79.7098 68.692 79.1659 69.9254 78.6904 71.4088C77.6799 74.5568 78.0068 75.8591 78.2565 75.8878C78.7914 75.9511 80.3398 73.5189 80.3398 73.5189C80.3398 74.9276 81.0888 76.7647 82.7115 78.09C81.9269 78.3228 80.1645 78.9495 80.5835 79.6366C80.9224 80.1915 86.4146 79.9902 87.9987 79.8178C89.5828 79.9902 95.0751 80.1915 95.4139 79.6366C95.833 78.9524 94.0676 78.3228 93.2859 78.09C94.9087 76.7618 95.6576 74.9247 95.6576 73.5189C95.6576 73.5189 97.206 75.9511 97.741 75.8878C97.9936 75.8562 98.3205 74.5539 97.31 71.4088Z" fill="rgb(106,169,255)" fill-rule="evenodd" />
</svg>
