<svg viewBox="61 41 54 54" xmlns="http://www.w3.org/2000/svg" width="54" height="54" fill="none">
  <path d="M115 68C115 82.9117 102.912 95 88 95C73.0883 95 61 82.9117 61 68C61 53.0883 73.0883 41 88 41C102.912 41 115 53.0883 115 68Z" fill="rgb(255,255,255)" fill-opacity="0.8" fill-rule="evenodd" />
  <path d="M88 95C73.0883 95 61 82.9117 61 68C61 53.0883 73.0883 41 88 41C102.912 41 115 53.0883 115 68C115 82.9117 102.912 95 88 95Z" fill-rule="evenodd" stroke="rgb(151,154,178)" stroke-opacity="0.196078435" stroke-width="2" />
  <path d="M92.6005 63.3537C92.8997 63.3537 93.1947 63.3756 93.4869 63.4075C92.6909 59.7317 88.7268 56.9999 84.2025 56.9999C79.1439 56.9999 75 60.419 75 64.7602C75 67.2657 76.3789 69.3235 78.6824 70.9196L77.7621 73.6651L80.9788 72.0652C82.1305 72.2907 83.0536 72.5234 84.2025 72.5234C84.4911 72.5234 84.7769 72.5093 85.0613 72.4867C84.8814 71.8771 84.7769 71.2379 84.7769 70.5752C84.7769 66.589 88.2293 63.3537 92.6005 63.3537ZM81.2131 63.1607C80.5229 63.1607 79.827 62.7024 79.827 62.0186C79.827 61.332 80.5229 60.8794 81.2131 60.8794C81.9025 60.8794 82.362 61.332 82.362 62.0186C82.362 62.7025 81.9025 63.1607 81.2131 63.1607ZM88.8052 62.0186C88.8052 61.332 88.3465 60.8794 87.6535 60.8794C86.9633 60.8794 86.2717 61.332 86.2717 62.0186C86.2717 62.7024 86.9633 63.1607 87.6535 63.1607C88.3465 63.1607 88.8052 62.7024 88.8052 62.0186ZM93.1834 63.8438C97.3182 63.8438 101 66.8174 101 70.4656C101 72.5234 99.6238 74.3454 97.7762 75.7201L98.4686 78L95.9441 76.6295C95.0239 76.8586 94.0994 77.0863 93.1834 77.0863C88.8051 77.0863 85.357 74.1191 85.357 70.4656C85.357 66.8174 88.8051 63.8438 93.1834 63.8438ZM90.6457 69.3237C90.1878 69.3237 89.7255 68.8719 89.7255 68.4108C89.7255 67.9561 90.1878 67.4986 90.6457 67.4986C91.3416 67.4986 91.7975 67.9561 91.7975 68.4108C91.7975 68.8719 91.3416 69.3237 90.6457 69.3237ZM94.7933 68.4108C94.7933 68.8719 95.2527 69.3237 95.7071 69.3237C96.3973 69.3237 96.8589 68.8719 96.8589 68.4108C96.8589 67.9561 96.3973 67.4986 95.7071 67.4986C95.2527 67.4986 94.7933 67.9561 94.7933 68.4108Z" fill="rgb(74,213,116)" fill-rule="evenodd" />
</svg>
