<svg viewBox="0 0 9.36473 15.3704" xmlns="http://www.w3.org/2000/svg" xmlns:xlink="http://www.w3.org/1999/xlink" width="9.364731" height="15.370369" fill="none" customFrame="#000000">
	<g id="Icon/16x/phone">
		<path id="合并 2" d="M0 11.2734L0 13.0801C0 13.4007 0.0571564 13.6974 0.171469 13.9701C0.283094 14.2364 0.449218 14.4799 0.669842 14.7005C0.890465 14.9211 1.13393 15.0873 1.40024 15.1989C1.67297 15.3132 1.96965 15.3704 2.29029 15.3704L7.06172 15.3704C7.37719 15.3704 7.66986 15.3149 7.93974 15.204C8.20976 15.093 8.45697 14.9265 8.68136 14.7045C8.89962 14.4885 9.06562 14.2499 9.17936 13.9884C9.29841 13.7148 9.36019 13.4163 9.36473 13.0928L9.36473 2.29029C9.36473 1.96965 9.30757 1.67297 9.19326 1.40024C9.08163 1.13393 8.91551 0.890464 8.69489 0.669841C8.47426 0.449217 8.2308 0.283094 7.96449 0.171469C7.69176 0.0571565 7.39508 0 7.07444 0L2.29029 0C1.96965 0 1.67297 0.0571561 1.40024 0.171468C1.13393 0.283093 0.890466 0.449217 0.669842 0.669841C0.449217 0.890466 0.283092 1.13393 0.171468 1.40025C0.0571558 1.67297 0 1.96965 0 2.29029L0 11.2734ZM1.27238 11.9096L1.27238 13.0801C1.27238 13.225 1.29849 13.3589 1.3507 13.4817C1.40019 13.598 1.47314 13.7044 1.56955 13.8008C1.66596 13.8972 1.77234 13.9702 1.88871 14.0197C2.01146 14.0719 2.14532 14.098 2.29029 14.098L7.06172 14.098C7.20283 14.098 7.33375 14.0732 7.45447 14.0236C7.57534 13.9739 7.686 13.8994 7.78644 13.8C7.89629 13.6913 7.97657 13.5712 8.02727 13.4398C8.0689 13.3318 8.09059 13.2161 8.09235 13.0928L8.09235 11.9096L1.27238 11.9096ZM8.09235 10.6372L1.27238 10.6372L1.27238 2.29029C1.27238 2.14532 1.29849 2.01146 1.3507 1.8887C1.4002 1.77234 1.47315 1.66596 1.56955 1.56955C1.66596 1.47314 1.77234 1.4002 1.8887 1.3507C2.01146 1.29849 2.14532 1.27238 2.29029 1.27238L7.07444 1.27238C7.21941 1.27238 7.35327 1.29849 7.47603 1.3507C7.59239 1.4002 7.69877 1.47315 7.79518 1.56955C7.89158 1.66596 7.96453 1.77234 8.01403 1.8887C8.06624 2.01146 8.09235 2.14532 8.09235 2.29029L8.09235 10.6372ZM5.31908 12.8767C5.31908 12.5204 5.03915 12.2405 4.68289 12.2405L4.66964 12.2405C4.31337 12.2405 4.03345 12.5204 4.03345 12.8767C4.03345 13.2329 4.31337 13.5129 4.66964 13.5129L4.68289 13.5129C5.03915 13.5129 5.31908 13.2329 5.31908 12.8767Z" fill="rgb(255,142,50)" fill-rule="evenodd" />
	</g>
</svg>
