<svg viewBox="0 0 24 21.913" xmlns="http://www.w3.org/2000/svg" xmlns:xlink="http://www.w3.org/1999/xlink" width="24.000000" height="21.913048" fill="none" customFrame="#000000">
	<defs>
		<filter id="pixso_custom_mask_type_alpha">
			<feColorMatrix type="matrix" values="0 0 0 0 1 0 0 0 0 1 0 0 0 0 1 0 0 0 1 0 " />
		</filter>
	</defs>
	<mask id="mask_0" width="24.000000" height="21.913048" x="0.000000" y="0.000000" maskUnits="userSpaceOnUse">
		<g filter="url(#pixso_custom_mask_type_alpha)">
			<rect id="Icon/24x/eye on (Background/Mask)" width="24.000000" height="21.913048" x="0.000000" y="0.000000" fill="rgb(196,196,196)" />
			<rect id="Icon/24x/eye on (Background/Mask)" width="25.500000" height="23.413048" x="-0.750000" y="-0.750000" stroke="rgb(255,255,255)" stroke-opacity="0" stroke-linecap="butt" stroke-dasharray="0 0 " stroke-width="1.500000" />
		</g>
	</mask>
	<g id="Icon/24x/eye on">
		<rect id="Icon/24x/eye on (Background/Mask)" width="25.500000" height="23.413048" x="-0.750000" y="-0.750000" stroke="rgb(255,255,255)" stroke-opacity="0" stroke-linecap="butt" stroke-dasharray="0 0 " stroke-width="1.500000" />
		<g mask="url(#mask_0)">
			<path id="Vector" d="M22.5 11.5066C22.5 11.5066 18.2653 6.84778 12.0174 6.84778C5.76942 6.84778 1.5 11.5066 1.5 11.5066C1.5 11.5066 5.75207 16.1653 12 16.1653C18.2479 16.1653 22.5 11.5066 22.5 11.5066Z" fill-rule="evenodd" stroke="rgb(184,184,210)" stroke-linecap="butt" stroke-dasharray="0 0 " stroke-width="1.735537" />
			<path id="Vector" d="M9.18848 11.5066C9.18848 10.0801 10.455 8.92371 12.0174 8.92371C13.5798 8.92371 14.8463 10.0801 14.8463 11.5066C14.8463 12.9332 13.5798 14.0896 12.0174 14.0896C10.455 14.0896 9.18848 12.9332 9.18848 11.5066Z" fill-rule="evenodd" stroke="rgb(119,119,157)" stroke-linecap="butt" stroke-dasharray="0 0 " stroke-width="1.735537" />
		</g>
	</g>
</svg>
