<svg viewBox="0 0 14.314 13.6493" xmlns="http://www.w3.org/2000/svg" xmlns:xlink="http://www.w3.org/1999/xlink" width="14.314011" height="13.649321" fill="none" customFrame="#000000">
	<g id="Icon/16x/key">
		<path id="合并 1" d="M12.5518 2.09754L13.4394 1.20993C13.7193 0.929949 13.7193 0.489973 13.4394 0.209988C13.1594 -0.0699961 12.7194 -0.0699961 12.4394 0.209988L7.35957 5.28983C7.0575 5.06295 6.73744 4.87949 6.39938 4.73947C5.85442 4.51374 5.2627 4.40087 4.62423 4.40087C3.98575 4.40087 3.39403 4.51374 2.84906 4.73947C2.30409 4.96521 1.80587 5.30381 1.3544 5.75527C0.902937 6.20674 0.564336 6.70496 0.338602 7.24993C0.112867 7.7949 0 8.38662 0 9.02509C0 9.66356 0.112866 10.2553 0.338599 10.8003C0.564333 11.3452 0.902935 11.8434 1.3544 12.2949C1.80587 12.7464 2.30409 13.085 2.84906 13.3107C3.39403 13.5365 3.98575 13.6493 4.62423 13.6493C5.2627 13.6493 5.85442 13.5365 6.39939 13.3107C6.94436 13.085 7.44258 12.7464 7.89405 12.2949C8.34552 11.8434 8.68412 11.3452 8.90985 10.8003C9.13558 10.2553 9.24845 9.66357 9.24845 9.02509C9.24845 8.38662 9.13558 7.7949 8.90985 7.24993C8.76983 6.91189 8.58638 6.59184 8.35951 6.28978L9.58075 5.06855L10.6576 6.14538C10.9376 6.42536 11.3775 6.42536 11.6575 6.14538C11.9375 5.86539 11.9375 5.42542 11.6575 5.14543L10.5807 4.06861L11.5518 3.09749L13.1024 4.65874C13.3814 4.93968 13.8214 4.9412 14.1023 4.66218C14.3832 4.38315 14.3848 3.94318 14.1057 3.66224L12.5518 2.09754ZM1.64919 10.2574C1.49249 9.87908 1.41414 9.46832 1.41414 9.02509C1.41414 8.58187 1.49249 8.17111 1.64919 7.7928C1.80589 7.41448 2.04095 7.06862 2.35435 6.75522C2.66775 6.44181 3.01361 6.20676 3.39192 6.05006C3.77024 5.89336 4.181 5.81501 4.62423 5.81501C5.06744 5.81501 5.47821 5.89336 5.85652 6.05006C6.23484 6.20676 6.5807 6.44181 6.8941 6.75522C7.2075 7.06862 7.44256 7.41448 7.59926 7.79279C7.75596 8.1711 7.83431 8.58187 7.83431 9.02509C7.83431 9.46831 7.75596 9.87908 7.59926 10.2574C7.44256 10.6357 7.20751 10.9816 6.8941 11.295C6.5807 11.6084 6.23484 11.8434 5.85653 12.0001C5.47821 12.1568 5.06745 12.2352 4.62423 12.2352C4.181 12.2352 3.77024 12.1568 3.39192 12.0001C3.01361 11.8434 2.66775 11.6084 2.35435 11.295C2.04094 10.9816 1.80589 10.6357 1.64919 10.2574ZM4.64946 10.2151C4.64946 9.85885 4.36953 9.57892 4.01327 9.57892L4.00002 9.57892C3.64375 9.57892 3.36383 9.85885 3.36383 10.2151C3.36383 10.5714 3.64375 10.8513 4.00002 10.8513L4.01327 10.8513C4.36953 10.8513 4.64946 10.5714 4.64946 10.2151Z" fill="rgb(255,142,50)" fill-rule="evenodd" />
	</g>
</svg>
